Simulation
nRows=31
nColumns=15
endheader
time  TH_x TH_y TH_z SC_y  SC_z  SC_x  AC_y  AC_z  AC_x  GH_y  GH_z  GH_yy  EL_x  PS_y
0.0  0.000000  0.000000  0.000000  -29.66990752975666  0.42191263019617836  -0.02129248133795882  58.498016132160245  4.868309991026641  0.732220534307419  -43.30426827625644  8.306071251131875  103.19589810269049  14.704269372914753  120.000000
0.04078947368421054  0.000000  0.000000  0.000000  -28.82011037721139  1.2272962411472264  0.8164946349128784  57.83831910188999  4.49362884364561  0.6013263269034469  -37.68721630648538  8.52805778637579  96.74697823711628  14.620343950010662  120.000000
0.08157894736842108  0.000000  0.000000  0.000000  -28.221969325028294  1.7135493587214894  1.5513609778960566  57.32952342045721  4.100975193505697  0.3030837310639465  -31.90750274827407  8.949946986982216  90.23506334658397  14.407498878154904  120.000000
0.12236842105263163  0.000000  0.000000  0.000000  -27.760820561117423  2.0199640090734925  2.1909372996663175  56.90312647237407  3.7464756384337865  -0.05909361332279113  -26.89285148781327  9.618355135358508  84.65986952810235  14.403457866236701  120.000000
0.16315789473684217  0.000000  0.000000  0.000000  -27.372354496891855  2.214962967051309  2.7118806718647974  56.506857760755715  3.4642464533320565  -0.4414708236342762  -23.042923519114563  10.477649524261436  80.31277911334419  14.736796111136657  120.000000
0.2039473684210527  0.000000  0.000000  0.000000  -26.972421930774356  2.3439936391802827  3.092416270768134  56.10451641528027  3.301885464447875  -0.8098607522479211  -20.5676226032121  11.480081658019042  77.33395198615527  15.52553880199813  120.000000
0.24473684210526325  0.000000  0.000000  0.000000  -26.53770234470105  2.445045475646039  3.3092840043889247  55.66177114234478  3.2939102640575033  -1.1343176095650775  -19.36228615581791  12.577440514657981  75.51235296996951  16.854195168680523  120.000000
0.2855263157894738  0.000000  0.000000  0.000000  -26.076713754743484  2.542240475727741  3.338969425794185  55.16884112973845  3.4655400299876864  -1.3877766692356575  -19.219705457279364  13.74341545970484  74.56072803815006  18.764315632963225  120.000000
0.32631578947368434  0.000000  0.000000  0.000000  -25.605487486639504  2.642382319762454  3.173362053823233  54.618985623487326  3.8295433831718935  -1.5579822152386096  -19.942442819417845  14.973998781044696  74.24932124999555  21.268386877239635  120.000000
0.3671052631578949  0.000000  0.000000  0.000000  -25.1487084056087  2.7471478213937366  2.812314726360354  54.02200188511606  4.388172014896867  -1.6334108317670097  -21.338708661843352  16.269388407022703  74.41031973649889  24.318927487106997  120.000000
0.4078947368421054  0.000000  0.000000  0.000000  -24.72139801021803  2.85682409435274  2.2632549330621425  53.38846212395141  5.128458607336554  -1.5989628718521323  -23.233148100572528  17.63179863277221  74.93665610861748  27.81201274572676  120.000000
0.44868421052631596  0.000000  0.000000  0.000000  -24.331141097275847  2.9726313625465024  1.5404035196970587  52.73678098471752  6.0273438374222055  -1.4411694867764793  -25.443373043356825  19.05902438660079  75.73426338798338  31.601987233534423  120.000000
0.4894736842105265  0.000000  0.000000  0.000000  -23.982569468647455  3.095603439989977  0.6663926380740128  52.07953875945029  7.055476313032337  -1.1512137561101916  -27.791365166736533  20.54822410218523  76.71212042350551  35.540628764991546  120.000000
0.530263157894737  0.000000  0.000000  0.000000  -23.677954193501744  3.226223000980279  -0.32872816864230175  51.425907888372656  8.184202157530144  -0.7360474207608744  -30.116212946744167  22.095342134443673  77.7703813777251  39.512365386030794  120.000000
0.5710526315789476  0.000000  0.000000  0.000000  -23.41802710477733  3.3659704778028696  -1.4077519312622417  50.769530430019664  9.38312098431089  -0.21457857164238886  -32.29529894062485  23.697441949751383  78.81479915490571  43.454819755813205  120.000000
0.6118421052631582  0.000000  0.000000  0.000000  -23.20134697861298  3.518043683364667  -2.528880106177936  50.09977594676463  10.621669807716282  0.3832354649749453  -34.261354574113966  25.3501661308307  79.76608595167836  47.36018461320022  120.000000
0.6526315789473687  0.000000  0.000000  0.000000  -23.021622334298243  3.6865300156218375  -3.6475561472687548  49.40685313992664  11.863282622671738  1.029869224271691  -36.00287965922456  27.05523559513299  80.5818987496958  51.24938894838955  120.000000
0.6934210526315792  0.000000  0.000000  0.000000  -22.866011077650413  3.874308332716269  -4.7211644235850345  48.69365548981346  13.067056640174028  1.698372051769658  -37.546799713080205  28.816163415878172  81.24693884677804  55.14095823714623  120.000000
0.7342105263157898  0.000000  0.000000  0.000000  -22.7239804968619  4.083732152832278  -5.712019119963204  47.97199604725233  14.188434419470985  2.367590415987816  -38.92705884575037  30.640286426558646  81.76141468723523  59.03659821091209  120.000000
0.7750000000000004  0.000000  0.000000  0.000000  -22.589939369859188  4.322962730307877  -6.5903384281443875  47.2629082132644  15.180652175616649  3.0195529489133133  -40.175617996539664  32.53079130001426  82.12871644673433  62.91996301711927  120.000000
0.8157894736842108  0.000000  0.000000  0.000000  -22.47081178636107  4.605654601744943  -7.325818779606984  46.59121253265117  15.99796780340269  3.6395512727454844  -41.31069462728568  34.481345807629054  82.35789822531605  66.75950327979227  120.000000
0.8565789473684213  0.000000  0.000000  0.000000  -22.38343452924755  4.950816712626046  -7.890737685467427  45.98455123895604  16.60222740611827  4.214349965707113  -42.33125397758262  36.4685382240016  82.45767348570993  70.51213636556675  120.000000
0.8973684210526319  0.000000  0.000000  0.000000  -22.34189302454716  5.3767746363304  -8.265498771014288  45.463068270901594  16.974955172182668  4.736311060555447  -43.23221907054824  38.45184816141297  82.44593306386577  74.13046710964404  120.000000
0.9381578947368425  0.000000  0.000000  0.000000  -22.353334821912966  5.892652371860663  -8.44384485040999  45.033025536652474  17.121545798960895  5.199689427356132  -44.00694643905617  40.378742787953236  82.34767355974948  77.56621673706869  120.000000
0.978947368421053  0.000000  0.000000  0.000000  -22.418267301497195  6.495147164552015  -8.427180390015325  44.68904370297774  17.06231284691344  5.596756865284135  -44.653020159470955  42.196385967486044  82.19173916348325  80.77401633704366  120.000000
1.0197368421052635  0.000000  0.000000  0.000000  -22.53352325074114  7.167914100963884  -8.224078268180339  44.41797812321688  16.828424520114318  5.915853419083745  -45.174549962678746  43.86082086469621  82.00901095935087  83.71976634363932  120.000000
1.060526315789474  0.000000  0.000000  0.000000  -22.693027475591467  7.884929980552373  -7.851534350930126  44.2031456391595  16.45734146049783  6.145979354432772  -45.581969203189686  45.34481592409401  81.82796483402151  86.38595449433707  120.000000
1.1013157894736847  0.000000  0.000000  0.000000  -22.887084186403083  8.615431301920026  -7.33301153020729  44.02843843026776  15.98644060576769  6.278654888168096  -45.89323750950273  46.63962729833725  81.67388264577205  88.77135285870935  120.000000
1.1421052631578952  0.000000  0.000000  0.000000  -23.10419007581573  9.329066291389957  -6.69527717465415  43.88110290453587  15.4495146239279  6.3092570646591  -46.12907322988053  47.74951745982841  81.56498592112763  90.88430278818453  120.000000
1.1828947368421057  0.000000  0.000000  0.000000  -23.331352025523373  9.998916801319524  -5.9671759757460645  43.75410171395082  14.874081408348943  6.2388375380880206  -46.313190468282485  48.68858952036501  81.51193014391654  92.7362584029397  120.000000
1.2236842105263164  0.000000  0.000000  0.000000  -23.555401936144484  10.604393285658777  -5.178383645349093  43.6456525406057  14.28239404742368  6.074102843389726  -46.467936987623844  49.47344757021718  81.51634813887117  94.33689379687982  120.000000
